# xmcd CD database file
#
# Track frame offsets:
#	150
#	28835
#	45740
#
# Disc length: 1008 seconds
#
# Revision: 1
# Processed by: cddbd v1.5.1PL2 Copyright (c) Steve Scherf et al.
# Submitted via: CDex 1.51
#
DISCID=2003ee03
DTITLE=Feed - Feed Live
DYEAR=1992
DGENRE=Rock
TTITLE0=Where Is The Blame?
TTITLE1=As You Like It
TTITLE2=The Bell
EXTD=YEAR: 1992
EXTT0=
EXTT1=
EXTT2=
PLAYORDER=
